# This file uses centimeters as units for non-parametric coordinates.

mtllib choi_obj6.mtl
g default
v 2.090482 -0.750000 -5.038864
v 2.181459 -0.530211 -4.879362
v 1.964079 -0.523572 -5.061366
v 4.193459 -0.573885 -5.073036
v 3.996046 -0.555647 -4.874786
v 3.981567 -0.750000 -5.054214
v 2.788070 0.879117 -5.316830
v 2.679888 0.630104 -5.275266
v 2.880952 0.617207 -5.085785
v 2.988095 0.884814 -5.128623
v 4.340041 0.884318 -5.128554
v 4.302183 0.616170 -5.085599
v 4.501252 0.617276 -5.282570
v 4.532772 0.886487 -5.324157
v 2.988095 0.884814 -6.871377
v 2.880929 0.617229 -6.914210
v 2.679936 0.630191 -6.724855
v 2.788070 0.879117 -6.683170
v 4.532772 0.886487 -6.675843
v 4.501230 0.617161 -6.717280
v 4.302596 0.616417 -6.914357
v 4.340041 0.884318 -6.871446
v 1.964079 -0.523572 -6.938634
v 2.183194 -0.529095 -7.120437
v 2.090482 -0.750000 -6.961136
v 3.981567 -0.750000 -6.945786
v 3.995172 -0.554612 -7.125028
v 4.193459 -0.573885 -6.926964
v 3.148693 2.269085 -5.511009
v 3.101560 2.002029 -5.475352
v 3.297621 1.998146 -5.285102
v 3.340158 2.267215 -5.318576
v 4.317660 2.267668 -5.318625
v 4.337371 1.998032 -5.285086
v 4.530013 1.996722 -5.478224
v 4.511507 2.267072 -5.510194
v 4.511507 2.267072 -6.489806
v 4.530007 1.996586 -6.521601
v 4.337855 1.998359 -6.714868
v 4.317660 2.267668 -6.681375
v 3.340158 2.267215 -6.681424
v 3.297510 1.998244 -6.714884
v 3.101538 2.001962 -6.524560
v 3.148693 2.269085 -6.488991
v 2.715964 4.056145 -5.725950
v 2.852312 3.788152 -5.675900
v 3.045862 3.789556 -5.483496
v 2.922011 4.057432 -5.524823
v 3.436266 4.060631 -5.525469
v 3.692701 3.791500 -5.483707
v 3.885227 3.790294 -5.672772
v 3.680049 4.038372 -5.705944
v 3.680049 4.038372 -6.294056
v 3.885319 3.789797 -6.326587
v 3.693731 3.792327 -6.516204
v 3.436266 4.060631 -6.474531
v 2.922011 4.057432 -6.475177
v 3.045150 3.790069 -6.516448
v 2.852300 3.787768 -6.323605
v 2.715964 4.056145 -6.274050
v 1.974378 4.962459 -5.961548
v 2.181118 4.994227 -5.775185
v 2.131293 5.173093 -5.983219
v 2.125583 5.173093 -5.989855
v 2.192186 5.003384 -5.777033
v 2.372317 5.049246 -5.973111
v 2.126426 5.173093 -6.011118
v 2.372317 5.049246 -6.026889
v 2.192186 5.003384 -6.222967
v 2.131293 5.173093 -6.016781
v 2.182604 4.993272 -6.225008
v 1.974378 4.962459 -6.038452
vt 0.402007 0.978555
vt 0.388388 0.976130
vt 0.388388 0.773870
vt 0.399956 0.005781
vt 0.398813 0.036631
vt 0.625000 0.975228
vt 0.605756 0.976901
vt 0.625000 0.778307
vt 0.646713 0.029353
vt 0.350766 0.250000
vt 0.172826 0.250000
vt 0.397515 0.227868
vt 0.597080 0.227695
vt 0.676101 0.250000
vt 0.646201 0.227879
vt 0.847350 0.227860
vt 0.850424 0.250000
vt 0.375000 0.473464
vt 0.402821 0.500000
vt 0.397511 0.522128
vt 0.375000 0.707329
vt 0.592654 0.500000
vt 0.624089 0.516420
vt 0.624068 0.714794
vt 0.398934 0.713183
vt 0.596650 0.717435
vt 0.605756 0.773099
vt 0.375000 0.289841
vt 0.375000 0.472498
vt 0.403662 0.250000
vt 0.590392 0.250000
vt 0.625000 0.277870
vt 0.625000 0.465246
vt 0.590476 0.500000
vt 0.403641 0.500000
vt 0.375000 0.465477
vt 0.375000 0.313276
vt 0.375000 0.459350
vt 0.423209 0.250000
vt 0.584345 0.250000
vt 0.625000 0.289816
vt 0.625000 0.452691
vt 0.584595 0.500000
vt 0.423028 0.500000
vt 0.375000 0.449827
vt 0.375000 0.428642
vt 0.519095 0.250000
vt 0.528487 0.250000
vt 0.625000 0.340624
vt 0.625000 0.376248
vt 0.528487 0.500000
vt 0.519865 0.500000
vt 0.526330 0.386116
vt 0.596800 0.032392
vt 0.526330 0.363884
vt 0.522548 0.368280
vt 0.523106 0.382365
vt 0.597132 0.522264
vt 0.402007 0.771445
vt 0.846705 0.029353
vt 0.144481 0.037738
vt 0.349615 0.037738
vt 0.348723 0.230017
vt 0.145205 0.230032
vt 0.402821 0.250000
vt 0.592654 0.250000
vt 0.625000 0.277420
vt 0.625000 0.467194
vt 0.375000 0.284069
vt 0.414642 0.250000
vt 0.590207 0.250000
vt 0.625000 0.284415
vt 0.625000 0.460344
vt 0.590207 0.500000
vt 0.414642 0.500000
vt 0.375000 0.297973
vt 0.439675 0.250000
vt 0.568387 0.250000
vt 0.625000 0.296082
vt 0.625000 0.442602
vt 0.568387 0.500000
vt 0.439675 0.500000
vt 0.375000 0.377700
vt 0.603547 0.006227
vt 0.375000 0.281632
vt 0.621770 0.250000
vt 0.375000 0.516337
vt 0.375000 0.500000
vn -0.873158 -0.487438 0.000000
vn -0.873158 -0.487438 0.000000
vn -0.873158 -0.487438 0.000000
vn -0.873158 -0.487438 0.000000
vn -0.002094 -0.633015 0.774137
vn -0.002094 -0.633015 0.774137
vn -0.002094 -0.633015 0.774137
vn -0.002094 -0.633015 0.774137
vn -0.572058 0.474106 0.669308
vn -0.572058 0.474106 0.669308
vn -0.585243 0.453814 0.671970
vn -0.581034 0.460380 0.671156
vn 0.639196 -0.769044 0.000000
vn 0.639196 -0.769044 0.000000
vn 0.639196 -0.769044 0.000000
vn 0.639196 -0.769044 0.000000
vn 0.703608 -0.056804 0.708314
vn 0.703608 -0.056804 0.708314
vn 0.704922 -0.038727 0.708227
vn 0.704407 -0.046205 0.708291
vn -0.656822 0.303621 0.690217
vn -0.658677 0.297751 0.691006
vn -0.668284 0.267095 0.694303
vn -0.667813 0.268595 0.694178
vn -0.858935 0.512084 0.000001
vn -0.953545 0.301250 0.000000
vn -0.953543 0.301258 0.000000
vn -0.858935 0.512085 0.000001
vn -0.000001 0.144772 0.989465
vn -0.000001 0.175165 0.984539
vn -0.000001 0.173222 0.984883
vn -0.000001 0.143042 0.989717
vn 0.707177 0.081342 0.702342
vn 0.707025 0.086340 0.701898
vn 0.705121 0.106889 0.700984
vn 0.705290 0.106027 0.700945
vn 0.999614 -0.027798 -0.000003
vn 0.972540 -0.232737 0.000002
vn 0.972540 -0.232735 0.000002
vn 0.999614 -0.027793 -0.000003
vn -0.658827 0.297787 -0.690847
vn -0.656953 0.303661 -0.690074
vn -0.668008 0.268628 -0.693977
vn -0.668484 0.267111 -0.694104
vn -0.000001 0.175162 -0.984540
vn -0.000001 0.144766 -0.989466
vn -0.000001 0.143039 -0.989717
vn -0.000001 0.173216 -0.984884
vn -0.580410 0.459924 -0.672008
vn -0.584645 0.453422 -0.672755
vn -0.571361 0.473548 -0.670298
vn -0.571361 0.473548 -0.670298
vn 0.707633 0.086215 -0.701301
vn 0.707775 0.081243 -0.701751
vn 0.705919 0.105959 -0.700322
vn 0.705755 0.106807 -0.700359
vn 0.703983 -0.046309 -0.708706
vn 0.704600 -0.038857 -0.708540
vn 0.703034 -0.056951 -0.708872
vn 0.703034 -0.056951 -0.708872
vn -0.002090 -0.630613 -0.776095
vn -0.002090 -0.630613 -0.776095
vn -0.002090 -0.630613 -0.776095
vn -0.002090 -0.630613 -0.776095
vn -0.705977 -0.023957 0.707829
vn -0.705907 -0.015162 0.708143
vn -0.704218 -0.077339 0.705759
vn -0.702601 -0.093665 0.705393
vn -0.966786 0.255588 0.000002
vn -0.992914 -0.118835 0.000043
vn -0.992914 -0.118834 0.000043
vn -0.966786 0.255587 0.000002
vn -0.000001 0.110499 0.993876
vn -0.000001 0.137053 0.990564
vn -0.000001 0.136629 0.990622
vn -0.000001 0.111386 0.993777
vn 0.667041 0.316127 0.674625
vn 0.668411 0.310587 0.675842
vn 0.649084 0.371598 0.663781
vn 0.638191 0.398255 0.658867
vn 0.946146 0.323742 -0.000053
vn 0.999924 0.012308 -0.000003
vn 0.999924 0.012308 -0.000003
vn 0.946143 0.323748 -0.000053
vn 0.670016 0.310977 -0.674071
vn 0.668674 0.316535 -0.672816
vn 0.639888 0.399092 -0.656710
vn 0.650908 0.372028 -0.661750
vn -0.000001 0.111379 -0.993778
vn -0.000001 0.136630 -0.990622
vn -0.000001 0.137054 -0.990564
vn -0.000000 0.110492 -0.993877
vn -0.706749 -0.015435 -0.707296
vn -0.706843 -0.024241 -0.706955
vn -0.703521 -0.093866 -0.704448
vn -0.705142 -0.077759 -0.704790
vn -0.640192 -0.311177 0.702370
vn -0.652785 -0.285544 0.701667
vn -0.633486 -0.324311 0.702509
vn -0.633486 -0.324311 0.702509
vn -0.975418 -0.220361 0.000064
vn -0.823487 -0.567336 0.000060
vn -0.823457 -0.567379 0.000060
vn -0.975421 -0.220352 0.000064
vn -0.001089 0.232099 0.972691
vn 0.000008 0.114729 0.993397
vn 0.000003 0.109995 0.993932
vn -0.000434 0.186727 0.982412
vn 0.449916 0.706005 0.546929
vn 0.475660 0.674937 0.564098
vn 0.436201 0.720668 0.538856
vn 0.434691 0.721945 0.538367
vn 0.664300 0.747466 -0.000061
vn 0.911221 0.411918 -0.000079
vn 0.911229 0.411900 -0.000079
vn 0.664256 0.747505 -0.000061
vn 0.476072 0.675429 -0.563162
vn 0.450000 0.706172 -0.546646
vn 0.434842 0.721786 -0.538459
vn 0.436309 0.720555 -0.538921
vn -0.000478 0.186721 -0.982413
vn 0.000002 0.109988 -0.993933
vn 0.000006 0.114725 -0.993397
vn -0.001176 0.232021 -0.972710
vn -0.652748 -0.285140 -0.701865
vn -0.639911 -0.310480 -0.702934
vn -0.633062 -0.323499 -0.703265
vn -0.633062 -0.323499 -0.703265
vn -0.801934 0.597412 0.000000
vn -0.801934 0.597412 0.000000
vn -0.801934 0.597412 0.000000
vn -0.801934 0.597412 0.000000
vn -0.590648 0.537113 0.602200
vn -0.600772 0.529729 0.598716
vn -0.200716 0.726446 0.657259
vn -0.200716 0.726446 0.657259
vn 0.449204 0.893415 0.005037
vn 0.609051 0.793131 0.000084
vn 0.609045 0.793135 0.000084
vn 0.449204 0.893415 0.005037
vn -0.359145 0.665748 -0.654060
vn -0.359145 0.665748 -0.654060
vn -0.603942 0.523751 -0.600783
vn -0.597071 0.528830 -0.603195
vn -0.000000 0.177060 0.984200
vn -0.000000 0.177060 0.984200
vn 0.000000 -1.000000 0.000013
vn 0.000000 -1.000000 0.000013
vn 0.000000 -1.000000 0.000013
vn 0.000000 -1.000000 0.000013
vn -0.000001 0.177060 -0.984200
vn -0.000001 0.177060 -0.984200
vn 0.000000 -1.000000 0.000000
vn 0.000000 -1.000000 0.000000
vn 0.000000 -1.000000 0.000000
vn 0.000000 -1.000000 0.000000
vn 0.968198 -0.250183 0.000002
vn 0.968199 -0.250183 0.000002
vn -0.849729 0.527220 0.000002
vn -0.849729 0.527220 0.000002
vn -0.001445 0.256580 0.966522
vn -0.001445 0.256580 0.966522
vn -0.001556 0.256498 -0.966543
vn -0.001556 0.256498 -0.966543
vn -0.773934 -0.633266 0.000000
vn -0.773934 -0.633266 0.000000
vn -0.622215 -0.274494 0.733145
vn -0.622215 -0.274494 0.733145
vn -0.622215 -0.274494 0.733145
vn 0.543925 -0.590729 0.595973
vn 0.543925 -0.590729 0.595973
vn 0.543925 -0.590729 0.595973
vn -0.618513 -0.272024 -0.737187
vn -0.618513 -0.272024 -0.737187
vn -0.618513 -0.272024 -0.737187
vn 0.542188 -0.588206 -0.600038
vn 0.542188 -0.588206 -0.600038
vn 0.542188 -0.588206 -0.600038
vn -0.614895 0.519148 0.593624
vn 0.357570 0.781493 0.511286
vn 0.359724 0.779511 -0.512798
vn -0.612180 0.517557 -0.597805
s off
g pCube1
usemtl initialShadingGroup
f 1/1/1 3/2/2 23/3/3 25/59/4
f 2/5/5 1/4/6 6/84/7 5/54/8
s 1
f 3/62/9 2/5/10 9/12/11 8/63/12
s off
f 4/6/13 6/7/14 26/27/15 28/8/16
s 2
f 5/54/17 4/9/18 13/15/19 12/13/20
s 1
f 7/85/21 10/65/22 31/30/23 30/69/24
s 3
f 8/63/25 7/10/26 18/11/27 17/64/28
s 4
f 10/65/29 9/12/30 12/13/31 11/66/32
s 2
f 11/66/33 14/67/34 35/32/35 34/31/36
s 5
f 14/14/37 13/15/38 20/16/39 19/17/40
s 6
f 15/19/41 18/18/42 43/29/43 42/35/44
s 7
f 16/20/45 15/19/46 22/22/47 21/58/48
s 6
f 17/87/49 16/20/50 24/25/51 23/21/52
s 8
f 19/68/53 22/22/54 39/34/55 38/33/56
f 21/58/57 20/23/58 28/24/59 27/26/60
s off
f 25/59/61 24/25/62 27/26/63 26/27/64
s 1
f 29/28/65 32/70/66 47/39/67 46/76/68
s 3
f 30/69/69 29/28/70 44/36/71 43/29/72
s 4
f 32/70/73 31/30/74 34/31/75 33/71/76
s 2
f 33/71/77 36/72/78 51/41/79 50/40/80
s 5
f 36/72/81 35/32/82 38/33/83 37/73/84
s 8
f 37/73/85 40/74/86 55/43/87 54/42/88
s 7
f 40/74/89 39/34/90 42/35/91 41/75/92
s 6
f 41/75/93 44/36/94 59/38/95 58/44/96
s 1
f 45/37/97 48/77/98 62/47/99 61/83/100
s 3
f 46/76/101 45/37/102 60/45/103 59/38/104
s 4
f 48/77/105 47/39/106 50/40/107 49/78/108
s 2
f 49/78/109 52/79/110 66/49/111 65/48/112
s 5
f 52/79/113 51/41/114 54/42/115 53/80/116
s 8
f 53/80/117 56/81/118 69/51/119 68/50/120
s 7
f 56/81/121 55/43/122 58/44/123 57/82/124
s 6
f 57/82/125 60/45/126 72/46/127 71/52/128
s off
f 61/83/129 63/55/130 70/53/131 72/46/132
s 11
f 63/55/133 62/47/134 65/48/135 64/56/136
s 5
f 64/56/137 66/49/138 68/50/139 67/57/140
s 12
f 67/57/141 69/51/142 71/52/143 70/53/144
s 4
f 2/5/145 5/54/146 12/13/31 9/12/30
s off
f 63/55/147 64/56/148 67/57/149 70/53/150
s 7
f 16/20/45 21/58/48 27/26/151 24/25/152
s off
f 25/59/153 26/27/154 6/7/155 1/1/156
s 5
f 4/9/157 28/60/158 20/16/39 13/15/38
s 3
f 23/61/159 3/62/160 8/63/25 17/64/28
s 4
f 10/65/29 11/66/32 34/31/75 31/30/74
s 5
f 14/67/37 19/68/40 38/33/83 35/32/82
s 7
f 22/22/47 15/19/46 42/35/91 39/34/90
s 3
f 18/18/27 7/85/26 30/69/69 43/29/72
s 4
f 32/70/73 33/71/76 50/40/107 47/39/106
s 5
f 36/72/81 37/73/84 54/42/115 51/41/114
s 7
f 40/74/89 41/75/92 58/44/123 55/43/122
s 3
f 44/36/71 29/28/70 46/76/101 59/38/104
s 4
f 48/77/105 49/78/108 65/48/161 62/47/162
s 5
f 52/79/113 53/80/116 68/50/139 66/49/138
s 7
f 56/81/121 57/82/124 71/52/163 69/51/164
s 3
f 60/45/103 45/37/102 61/83/165 72/46/166
s off
f 1/4/167 2/5/168 3/62/169
f 4/9/170 5/54/171 6/84/172
s 1
f 7/85/21 8/63/12 9/12/11 10/65/22
s 2
f 11/66/33 12/13/20 13/15/19 14/86/34
s 6
f 15/19/41 16/20/50 17/87/49 18/88/42
s 8
f 19/68/53 20/23/58 21/58/57 22/22/54
s off
f 23/21/173 24/25/174 25/59/175
f 26/27/176 27/26/177 28/24/178
s 1
f 29/28/65 30/69/24 31/30/23 32/70/66
s 2
f 33/71/77 34/31/36 35/32/35 36/72/78
s 8
f 37/73/85 38/33/56 39/34/55 40/74/86
s 6
f 41/75/93 42/35/44 43/29/43 44/36/94
s 1
f 45/37/97 46/76/68 47/39/67 48/77/98
s 2
f 49/78/109 50/40/80 51/41/79 52/79/110
s 8
f 53/80/117 54/42/88 55/43/87 56/81/118
s 6
f 57/82/125 58/44/96 59/38/95 60/45/126
s 11
f 61/83/179 62/47/134 63/55/133
s 2
f 64/56/180 65/48/112 66/49/111
s 8
f 67/57/181 68/50/120 69/51/119
s 12
f 70/53/144 71/52/143 72/46/182
